<?xml version="1.0" encoding="UTF-8" standalone="no"?>
<svg
   xmlns:dc="http://purl.org/dc/elements/1.1/"
   xmlns:cc="http://creativecommons.org/ns#"
   xmlns:rdf="http://www.w3.org/1999/02/22-rdf-syntax-ns#"
   xmlns:svg="http://www.w3.org/2000/svg"
   xmlns="http://www.w3.org/2000/svg"
   version="1.1"
   id="svg2"
   viewBox="0 0 19.999999 20"
   height="20"
   width="20">
  <metadata
     id="metadata4156">
    <rdf:RDF>
      <cc:Work
         rdf:about="">
        <dc:format>image/svg+xml</dc:format>
        <dc:type
           rdf:resource="http://purl.org/dc/dcmitype/StillImage" />
        <dc:title></dc:title>
      </cc:Work>
    </rdf:RDF>
  </metadata>
  <defs
     id="defs4154" />
  <g
     transform="matrix(0.61021873,0,0,0.61021873,-96.31049,-233.1695)"
     id="layer1">
    <g
       style="font-style:normal;font-weight:normal;font-size:40px;line-height:125%;font-family:sans-serif;letter-spacing:0px;word-spacing:0px;fill:#000000;fill-opacity:1;stroke:none;stroke-width:1px;stroke-linecap:butt;stroke-linejoin:miter;stroke-opacity:1"
       id="text4136">
      <path
         d="m 166.5038,404.09564 -0.08,0 -3.6,-20.04 -4.88,0 6.04,28.88 4.96,0 6.04,-28.88 -4.88,0 -3.6,20.04 z"
         id="path4137" />
      <path
         d="m 190.49024,393.69564 0,-2.12 q 0,-1.6 -0.48,-3.04 -0.44,-1.44 -1.36,-2.52 -0.88,-1.08 -2.28,-1.72 -1.4,-0.64 -3.24,-0.64 -1.96,0 -3.4,0.6 -1.4,0.56 -2.36,1.56 -0.92,1 -1.4,2.36 -0.44,1.36 -0.44,2.88 l 0,14.88 q 0,1.52 0.44,2.88 0.48,1.36 1.4,2.36 0.96,1 2.36,1.6 1.44,0.56 3.4,0.56 1.84,0 3.24,-0.56 1.4,-0.6 2.28,-1.6 0.92,-1 1.36,-2.36 0.48,-1.36 0.48,-2.88 l 0,-3.32 -4.96,0 0,3.48 q 0,1.4 -0.52,2.16 -0.52,0.76 -1.88,0.76 -1.52,0 -2.08,-0.76 -0.56,-0.8 -0.56,-2.44 l 0,-14.64 q 0,-1.64 0.56,-2.4 0.56,-0.8 2.08,-0.8 0.96,0 1.68,0.84 0.72,0.8 0.72,2.64 l 0,2.24 4.96,0 z"
         id="path4147" />
    </g>
  </g>
</svg>
